<?xml version="1.0" standalone="no"?><!DOCTYPE svg PUBLIC "-//W3C//DTD SVG 1.1//EN" "http://www.w3.org/Graphics/SVG/1.1/DTD/svg11.dtd"><svg t="1598258229534" class="icon" viewBox="0 0 1024 1024" version="1.1" xmlns="http://www.w3.org/2000/svg" p-id="12571" xmlns:xlink="http://www.w3.org/1999/xlink" width="200" height="200"><defs><style type="text/css"></style></defs><path d="M512 514m-448 0a448 448 0 1 0 896 0 448 448 0 1 0-896 0Z" fill="#69B452" p-id="12572"></path><path d="M361.41 678.38l266.98 0 0 85.62-266.98 0 0-85.62Z" fill="#D1F0C7" p-id="12573"></path><path d="M795.8 317.49H517.88a6.58 6.58 0 0 0-3.94 1.3 7 7 0 0 1-4.14 1.46H320.2a6.63 6.63 0 0 0-6.63 6.63v3.31a6.63 6.63 0 0 0 6.63 6.63h189.6a7 7 0 0 1 4.14 1.46 6.58 6.58 0 0 0 3.94 1.3H795.8a6.63 6.63 0 0 0 6.63-6.63v-8.84a6.63 6.63 0 0 0-6.63-6.62zM795.8 361.68H517.88a6.58 6.58 0 0 0-3.94 1.3 7 7 0 0 1-4.14 1.46H320.2a6.63 6.63 0 0 0-6.63 6.63v3.31a6.63 6.63 0 0 0 6.63 6.62h189.6a7 7 0 0 1 4.14 1.46 6.58 6.58 0 0 0 3.94 1.3H795.8a6.63 6.63 0 0 0 6.63-6.63v-8.84a6.63 6.63 0 0 0-6.63-6.61z" fill="#FFFFFF" p-id="12574"></path><path d="M416.22 300l0 304.27-16.57 0 0-304.27 16.57 0Z" fill="#D1F0C7" p-id="12575"></path><path d="M460.13 300l0 304.27-16.57 0 0-304.27 16.57 0Z" fill="#D1F0C7" p-id="12576"></path><path d="M372.03 300l0 304.27-16.57 0 0-304.27 16.57 0Z" fill="#D1F0C7" p-id="12577"></path><path d="M494.9 733.62c148.49 0 269.34-118.37 273.33-265.9a7.36 7.36 0 0 0-7.37-7.53H228.94a7.36 7.36 0 0 0-7.37 7.53c3.99 147.53 124.84 265.9 273.33 265.9z" fill="#FFFFFF" p-id="12578"></path></svg>