<?xml version="1.0" standalone="no"?><!DOCTYPE svg PUBLIC "-//W3C//DTD SVG 1.1//EN" "http://www.w3.org/Graphics/SVG/1.1/DTD/svg11.dtd"><svg t="1598254717198" class="icon" viewBox="0 0 1419 1024" version="1.1" xmlns="http://www.w3.org/2000/svg" p-id="3100" xmlns:xlink="http://www.w3.org/1999/xlink" width="277.1484375" height="200"><defs><style type="text/css"></style></defs><path d="M0 351.662657h1335.911695a615.441399 615.441399 0 0 1-615.441399 615.441399h-105.028897A615.441399 615.441399 0 0 1 0 351.662657z" fill="#EB3D72" p-id="3101"></path><path d="M183.641821 367.791641v-16.128984H0a615.441399 615.441399 0 0 0 615.441399 615.441399h27.812973c-268.477738-90.550912-459.612551-324.738683-459.612551-599.312415z" fill="#EB3D72" opacity=".6" p-id="3102"></path><path d="M0 351.662657a670.178346 136.651867 0 1 0 1340.356691 0 670.178346 136.651867 0 1 0-1340.356691 0Z" fill="#612273" p-id="3103"></path><path d="M89.915912 351.662657a580.262433 118.363884 0 1 0 1160.524867 0 580.262433 118.363884 0 1 0-1160.524867 0Z" fill="#40144F" p-id="3104"></path><path d="M132.497329 460.336146a159.892844 313.689694 58.2 1 0 533.205157-330.601204 159.892844 313.689694 58.2 1 0-533.205157 330.601204Z" fill="#7F5B33" p-id="3105"></path><path d="M346.963661 204.8508a10.66799 10.66799 0 0 1 3.047997-14.477986c4.190996-2.793997 101.599901-68.325933 159.892844-53.339948a10.794989 10.794989 0 1 1-5.333995 20.82798c-40.76696-10.54099-116.712886 32.638968-142.493861 50.79995a10.66799 10.66799 0 0 1-14.858985-2.920997zM271.525735 353.186655a10.54099 10.54099 0 0 1-1.269999-8.508992c0.761999-2.666997 18.795982-64.515937 102.6159-77.850924a10.66799 10.66799 0 0 1 12.699987 8.889992 10.794989 10.794989 0 0 1-8.889991 12.699987c-69.722932 11.048989-84.835917 60.324941-85.343917 62.356939a10.794989 10.794989 0 0 1-13.334986 7.365993 10.28699 10.28699 0 0 1-6.476994-4.952995zM284.733722 448.563562a9.77899 9.77899 0 0 1-1.523999-4.571996 10.66799 10.66799 0 0 1 9.524991-11.810988c0.761999 0 73.786928-8.000992 87.248915-52.196949a10.794989 10.794989 0 1 1 20.57398 6.349994c-17.779983 57.784944-101.599901 66.928935-105.663897 67.182934a10.54099 10.54099 0 0 1-10.15999-4.952995zM509.904502 307.2127v-0.761999a10.66799 10.66799 0 0 1 4.571996-14.477986c13.969986-7.238993 35.813965-22.478978 38.099962-31.876969a10.70609 10.70609 0 0 1 20.82798 4.952995c-5.206995 22.351978-41.782959 42.290959-49.148952 45.973955a10.54099 10.54099 0 0 1-14.350986-3.809996zM156.717847 408.304601a10.41399 10.41399 0 0 1-1.269999-8.000992c0-1.777998 9.524991-41.27496 34.797966-59.181942a10.66799 10.66799 0 0 1 14.858986 2.539997 10.794989 10.794989 0 0 1-2.539998 14.985986 89.661912 89.661912 0 0 0-26.288974 46.354954 10.794989 10.794989 0 0 1-12.699988 8.127993 11.556989 11.556989 0 0 1-6.857993-4.825996zM562.99045 209.803795c3.682996 3.809996 25.399975 20.31998 43.306958 2.412998a21.970979 21.970979 0 0 0 2.412998-33.146968 16.255984 16.255984 0 1 0-23.240978 21.843979s-3.936996 0-10.41399-6.730994-3.936996-17.398983 5.714995-26.796973 47.624953-19.684981 86.232916 19.68498c1.269999 1.269999 2.412998 2.666997 3.555996 4.063996a21.589979 21.589979 0 0 0 3.301997-25.399975c-36.575964-32.638968-81.406921-36.321965-106.298896-12.699987a38.988962 38.988962 0 0 0-4.571996 56.768944z" fill="#A8733F" p-id="3106"></path><path d="M349.122659 217.423788c128.142875-79.374922 263.651743-99.440903 327.27868-53.974948a84.327918 84.327918 0 0 0-11.683988-32.130968c-46.481955-75.056927-203.199802-61.975939-350.900657 29.209971s-228.599777 225.932779-182.625822 300.989706a88.899913 88.899913 0 0 0 23.494977 25.399975c-12.318988-77.850924 66.166935-190.118814 194.43681-269.493736z" fill="#7F5B33" opacity=".5" p-id="3107"></path><path d="M698.39172 418.145317a159.892844 313.689694 68.8 1 0 584.920735-226.875801 159.892844 313.689694 68.8 1 0-584.920735 226.875801Z" fill="#7F5B33" p-id="3108"></path><path d="M958.214064 208.406796a10.794989 10.794989 0 0 1 5.714995-13.715986c4.571996-2.031998 112.39489-48.132953 167.131836-22.351978a10.794989 10.794989 0 0 1-9.143991 19.430981c-38.099963-18.033982-120.776882 10.15999-149.351854 22.605978a10.921989 10.921989 0 0 1-14.223986-5.587995zM856.233164 339.851668a11.302989 11.302989 0 0 1 0-8.635991c1.269999-2.412998 30.60697-59.816942 115.442887-57.149945a10.54099 10.54099 0 0 1 10.41399 11.04899 10.794989 10.794989 0 0 1-11.048989 10.413989C900.93712 293.369714 876.299144 338.962669 876.299144 340.867667a10.794989 10.794989 0 0 1-19.684981-1.015999zM850.899169 435.990574a9.651991 9.651991 0 0 1-0.761999-4.698995 10.921989 10.921989 0 0 1 11.683988-9.778991c0.761999 0 73.913928 5.968994 95.503907-34.924966a10.66799 10.66799 0 0 1 14.477986-4.444995 10.66799 10.66799 0 0 1 4.444996 14.477986c-28.193972 53.466948-112.77589 46.608954-116.331887 46.227955a10.66799 10.66799 0 0 1-9.016991-6.857994zM1099.056927 339.343669v-0.762a10.794989 10.794989 0 0 1 7.238993-13.334987c15.112985-4.444996 39.369962-15.366985 43.306957-24.129976a10.794989 10.794989 0 0 1 19.684981 8.762991c-9.397991 20.95498-49.021952 33.654967-56.895944 35.940965a10.66799 10.66799 0 0 1-13.334987-6.476993zM733.170284 372.490636a11.302989 11.302989 0 0 1 0-8.127992c0-1.650998 17.144983-38.734962 45.211956-51.561949a10.68069 10.68069 0 1 1 8.889991 19.430981 88.899913 88.899913 0 0 0-34.416966 40.63996 10.794989 10.794989 0 0 1-14.223986 5.587994 10.921989 10.921989 0 0 1-5.460995-5.968994zM1169.668858 253.110753c2.793997 4.317996 20.57398 24.510976 42.036959 10.41399a21.970979 21.970979 0 0 0 8.635991-32.130969 16.255984 16.255984 0 1 0-26.542974 17.779983s-4.063996 0-9.143991-8.508992 0-17.906983 10.79499-25.399975 50.79995-10.28699 80.898921 35.559965a45.719955 45.719955 0 0 1 2.793997 4.698995 21.589979 21.589979 0 0 0 8.000992-24.256976c-29.717971-38.988962-73.024929-50.79995-101.599901-31.876969a38.861962 38.861962 0 0 0-15.874984 53.720948z" fill="#A8733F" p-id="3109"></path><path d="M957.960064 221.106784c140.715863-53.974947 277.621729-48.259953 331.596677 8.381992a86.994915 86.994915 0 0 0-5.460995-33.781967c-31.495969-82.42292-188.340816-99.059903-350.138658-36.702964S666.622349 337.56567 698.499318 419.98859a84.708917 84.708917 0 0 0 18.414982 28.828972c2.031998-78.231924 100.202902-173.86283 241.045764-227.710778z" fill="#7F5B33" opacity=".5" p-id="3110"></path><path d="M1021.587002 132.460871a578.992435 578.992435 0 0 0-87.629914 26.542974C772.159246 220.471785 666.622349 337.56567 698.499318 419.98859a92.836909 92.836909 0 0 0 35.305965 43.814957 544.194469 544.194469 0 0 0 148.208856-101.599901c77.850924-75.056927 127.507875-160.400843 139.572863-229.742775z" fill="#7F5B33" opacity=".4" p-id="3111"></path><path d="M506.402101 461.526296a159.892844 313.689694 46.43 1 0 454.556973-432.415141 159.892844 313.689694 46.43 1 0-454.556973 432.415141Z" fill="#7F5B33" p-id="3112"></path><path d="M665.09835 166.115838a10.794989 10.794989 0 0 1 0-14.858986c3.428997-3.555997 85.216917-87.629914 145.668858-84.835917a10.794989 10.794989 0 0 1-1.015999 21.462979c-42.163959-2.031998-107.568895 55.879945-129.158874 78.358924a10.921989 10.921989 0 0 1-15.239985 0zM621.537393 326.770681a10.41399 10.41399 0 0 1-2.920997-8.127992c0-2.666997 5.206995-66.928935 84.454917-97.154905a10.769589 10.769589 0 1 1 8.127992 19.93898c-66.039936 25.399975-70.611931 76.199926-70.86593 78.739923a10.794989 10.794989 0 0 1-11.429989 9.905991 11.302989 11.302989 0 0 1-7.365993-3.301997zM653.922361 417.448592a11.302989 11.302989 0 0 1-2.412997-4.444995 10.794989 10.794989 0 0 1 6.984993-12.699988c0.761999 0 70.611931-22.986978 74.802927-68.960933a10.70609 10.70609 0 0 1 21.335979 1.904999c-5.460995 60.197941-86.232916 86.359916-89.661912 87.502914a10.921989 10.921989 0 0 1-11.04899-3.301997zM845.438174 232.917773v-0.635a10.66799 10.66799 0 0 1 1.523999-15.112985c12.699988-9.90599 30.47997-29.336971 30.73397-38.988962a10.794989 10.794989 0 0 1 21.462979 0c-0.634999 22.859978-32.257968 49.910951-38.099963 54.990946a10.794989 10.794989 0 0 1-15.620985-0.253999zM520.699492 404.113605a11.048989 11.048989 0 0 1-2.920998-7.492992c0-1.777998 0.888999-42.417959 21.970979-65.023937a10.794989 10.794989 0 1 1 15.747985 14.604986 88.899913 88.899913 0 0 0-16.255985 50.79995 10.794989 10.794989 0 0 1-10.921989 10.54099 10.921989 10.921989 0 0 1-7.619992-3.428997zM877.442143 126.110877c4.317996 2.920997 28.447972 14.731986 42.798958-6.476994a21.970979 21.970979 0 0 0-4.444995-33.019968 16.154384 16.154384 0 1 0-18.033983 26.796974s-3.809996 1.269999-11.683988-4.444995-7.365993-16.255984 0-27.431974 42.544958-28.955972 88.899913 1.650999a40.385961 40.385961 0 0 1 4.444996 3.301997 21.716979 21.716979 0 0 0-2.031998-25.399976c-42.417959-24.510976-87.121915-18.922982-106.552896 9.905991a38.988962 38.988962 0 0 0 6.603993 55.117946z" fill="#A8733F" p-id="3113"></path><path d="M669.670346 178.053826c109.219893-103.885899 237.743768-151.383852 309.371698-119.887883a88.137914 88.137914 0 0 0-18.033982-29.082971C900.175121-34.797966 749.299268 10.15999 623.569391 129.539873s-177.799826 268.096738-117.093886 331.977676a87.248915 87.248915 0 0 0 28.066973 19.557981c-27.939973-73.151929 25.907975-199.135806 135.127868-303.021704z" fill="#7F5B33" opacity=".5" p-id="3114"></path><path d="M682.878333 725.677291c5.841994-2.539998 34.289967-19.557981 22.097979-48.640952a27.050974 27.050974 0 0 0-36.956964-17.652983 19.938981 19.938981 0 1 0 15.366985 36.702964s-1.269999 4.825995-12.699988 9.016991-21.716979-3.301997-28.193972-18.668981-1.142999-63.499938 61.21394-90.042912l6.349994-2.285998a26.669974 26.669974 0 0 0-27.685973-15.112985c-53.720948 27.304973-78.104924 77.088925-61.46794 116.585886a48.132953 48.132953 0 0 0 61.975939 30.09897z" fill="#FED150" p-id="3115"></path><path d="M677.163339 804.036215a117.855885 117.855885 0 1 1 115.950886-139.699864A117.982885 117.982885 0 0 1 698.499318 802.004217a112.64889 112.64889 0 0 1-21.335979 2.031998z m0-210.184795a92.45591 92.45591 0 0 0-90.931911 109.092894 92.45591 92.45591 0 0 0 181.863822-33.400968 92.45591 92.45591 0 0 0-90.804911-75.691926zM961.516061 716.7873c4.571996-1.904998 26.669974-15.112985 17.144983-38.099963a20.95498 20.95498 0 0 0-28.574972-13.588987 15.747985 15.747985 0 0 0-9.143991 20.446981 16.001984 16.001984 0 0 0 21.08198 8.000992s-1.015999 3.682996-9.651991 6.984993-16.890984-2.666997-21.843979-14.477986-0.888999-48.640952 47.370954-69.849932a38.099963 38.099963 0 0 1 4.952995-1.777998 20.70098 20.70098 0 0 0-21.462979-10.921989c-41.655959 21.081979-60.451941 59.562942-47.624953 90.169912a37.210964 37.210964 0 0 0 47.751953 23.113977z" fill="#FED150" p-id="3116"></path><path d="M957.198065 777.493241a91.185911 91.185911 0 1 1 89.661913-107.822895 91.312911 91.312911 0 0 1-89.661913 107.822895z m0-162.813841a76.199926 76.199926 0 0 0-12.699987 1.142999 71.50093 71.50093 0 1 0 83.311918 57.403944 71.62793 71.62793 0 0 0-70.611931-58.546943zM1203.958824 716.7873a29.717971 29.717971 0 0 0 17.144984-38.099963 21.081979 21.081979 0 0 0-28.701972-13.588987 15.493985 15.493985 0 1 0 11.937988 28.447973s-0.888999 3.682996-9.524991 6.984993-16.890984-2.666997-21.843978-14.477986-0.888999-49.021952 47.370953-69.722932a38.099963 38.099963 0 0 1 4.952995-1.777998 20.70098 20.70098 0 0 0-21.462979-11.048989C1162.175865 624.33139 1142.998884 662.812353 1155.698871 693.419323a37.210964 37.210964 0 0 0 48.259953 23.367977z" fill="#FED150" p-id="3117"></path><path d="M1199.640828 777.493241a91.185911 91.185911 0 1 1 89.661913-107.822895 91.312911 91.312911 0 0 1-89.661913 107.822895z m0-162.813841a74.421927 74.421927 0 0 0-12.699987 1.142999 71.50093 71.50093 0 1 0 83.057919 57.403944 71.75493 71.75493 0 0 0-70.357932-58.546943zM168.782835 716.7873c4.571996-1.904998 26.669974-15.112985 17.144983-38.099963a20.95498 20.95498 0 0 0-28.574972-13.588987 15.747985 15.747985 0 0 0-9.143991 20.446981 16.001984 16.001984 0 0 0 21.08198 8.000992s-1.015999 3.682996-9.651991 6.984993-16.890984-2.666997-21.843979-14.477986-0.888999-49.021952 47.370954-69.722932a38.099963 38.099963 0 0 1 5.333995-1.396999 20.70098 20.70098 0 0 0-21.843979-11.429988c-41.655959 21.081979-60.451941 59.562942-47.624953 90.169912a37.210964 37.210964 0 0 0 47.751953 23.113977z" fill="#FED150" p-id="3118"></path><path d="M165.099839 777.493241a91.185911 91.185911 0 1 1 88.899913-107.822895 91.312911 91.312911 0 0 1-88.899913 107.822895z m0-162.813841a76.199926 76.199926 0 0 0-12.699988 1.142999 71.50093 71.50093 0 1 0 83.311919 57.403944A71.62793 71.62793 0 0 0 165.099839 614.6794zM411.225598 716.7873a29.717971 29.717971 0 0 0 17.144984-38.099963 21.081979 21.081979 0 0 0-28.701972-13.588987 15.493985 15.493985 0 1 0 11.937988 28.447973s-0.888999 3.682996-9.524991 6.984993-16.890984-2.666997-21.843978-14.477986-0.888999-49.021952 47.370953-69.722932a38.099963 38.099963 0 0 1 4.952996-1.777998 20.70098 20.70098 0 0 0-21.462979-11.048989c-41.655959 21.081979-60.451941 59.562942-47.624954 90.169912a37.210964 37.210964 0 0 0 47.751953 23.113977z" fill="#FED150" p-id="3119"></path><path d="M406.399603 777.493241a91.185911 91.185911 0 1 1 89.661913-107.822895A91.312911 91.312911 0 0 1 406.399603 777.493241z m0-162.813841a74.421927 74.421927 0 0 0-12.699987 1.523998 71.50093 71.50093 0 1 0 83.311918 57.403944A71.75493 71.75493 0 0 0 406.399603 614.6794z" fill="#FED150" p-id="3120"></path></svg>