<?xml version="1.0" standalone="no"?><!DOCTYPE svg PUBLIC "-//W3C//DTD SVG 1.1//EN" "http://www.w3.org/Graphics/SVG/1.1/DTD/svg11.dtd"><svg t="1597932154718" class="icon" viewBox="0 0 1024 1024" version="1.1" xmlns="http://www.w3.org/2000/svg" p-id="12916" xmlns:xlink="http://www.w3.org/1999/xlink" width="128" height="128"><defs><style type="text/css"></style></defs><path d="M725.308 1023.992c-11.78 0-21.31-9.562-21.31-21.312v-42.688a21.298 21.298 0 0 1 21.31-21.312c11.782 0 21.344 9.532 21.344 21.312v42.688c0 11.75-9.562 21.312-21.344 21.312zM1002.648 1023.992c-11.782 0-21.344-9.562-21.344-21.312v-42.688c0-11.782 9.562-21.312 21.344-21.312s21.342 9.532 21.342 21.312v42.688c0 11.75-9.56 21.312-21.342 21.312z" fill="#434A54" p-id="12917"></path><path d="M981.304 853.308H746.652c-11.782 0-21.344-9.532-21.344-21.312s9.562-21.312 21.344-21.312h234.652c11.782 0 21.344 9.532 21.344 21.312s-9.562 21.312-21.344 21.312zM981.304 682.688H746.652c-11.782 0-21.344-9.562-21.344-21.376 0-11.75 9.562-21.312 21.344-21.312h234.652c11.782 0 21.344 9.562 21.344 21.312 0 11.812-9.562 21.376-21.344 21.376zM981.304 512H746.652c-11.782 0-21.344-9.546-21.344-21.328s9.562-21.344 21.344-21.344h234.652c11.782 0 21.344 9.562 21.344 21.344S993.086 512 981.304 512zM981.304 341.332H746.652c-11.782 0-21.344-9.546-21.344-21.328s9.562-21.328 21.344-21.328h234.652c11.782 0 21.344 9.546 21.344 21.328s-9.562 21.328-21.344 21.328zM981.304 170.678H746.652c-11.782 0-21.344-9.562-21.344-21.344s9.562-21.328 21.344-21.328h234.652c11.782 0 21.344 9.546 21.344 21.328s-9.562 21.344-21.344 21.344zM64.008 1023.992c-11.782 0-21.344-9.562-21.344-21.312v-42.688c0-11.782 9.562-21.312 21.344-21.312s21.312 9.532 21.312 21.312v42.688c0 11.75-9.53 21.312-21.312 21.312zM618.656 1023.992c-11.782 0-21.344-9.562-21.344-21.312v-42.688c0-11.782 9.562-21.312 21.344-21.312S640 948.21 640 959.992v42.688c0 11.75-9.562 21.312-21.344 21.312z" fill="#7F4545" p-id="12918"></path><path d="M25.322 21.336h639.988v938.656H25.322z" fill="#7F4545" p-id="12919"></path><path d="M256.006 533.328h170.652v85.36h-170.652z" fill="#48CFAD" p-id="12920"></path><path d="M256.006 64.008h85.31v170.668h-85.31z" fill="#FFCE54" p-id="12921"></path><path d="M661.31 0.008H21.322C9.54 0.008 0.01 9.554 0.01 21.336v938.656a21.3 21.3 0 0 0 21.312 21.312h639.988c11.782 0 21.344-9.532 21.344-21.312V21.336c0-11.78-9.562-21.328-21.344-21.328zM42.664 277.332H640v191.998H42.664v-191.998z m0 234.668H640v191.996H42.664V512zM640 42.68v191.996H42.664V42.68H640z m-597.336 896v-191.996H640v191.996H42.664z" fill="#965353" p-id="12922"></path><path d="M512 533.328h85.312v170.668H512z" fill="#48CFAD" p-id="12923"></path><path d="M426.658 533.328H512v170.668h-85.342zM170.664 298.676h85.342v170.654H170.664z" fill="#ED5564" p-id="12924"></path><path d="M256.006 298.676h85.31v170.654h-85.31z" fill="#5D9CEC" p-id="12925"></path><path d="M341.316 298.676h85.342v170.654h-85.342z" fill="#A0D468" p-id="12926"></path><path d="M512 64.008h85.312v170.668H512z" fill="#AC92EB" p-id="12927"></path><path d="M85.32 149.334h170.686v85.342H85.32z" fill="#A0D468" p-id="12928"></path><path d="M85.32 65.478h170.686v85.326H85.32z" fill="#ED5564" p-id="12929"></path><path d="M189.318 298.676h48v170.654h-48zM530.656 64.008h48v170.668h-48zM274.66 64.008h48v170.668h-48z" fill="#E6E9ED" p-id="12930"></path><path d="M85.32 853.308h170.686v85.372H85.32z" fill="#ED5564" p-id="12931"></path><path d="M85.32 871.996h170.686v47.996H85.32zM256.006 552h170.652v48h-170.652zM85.32 168.006h170.686v48H85.32z" fill="#E6E9ED" p-id="12932"></path><path d="M426.658 64.008H512v170.668h-85.342z" fill="#5D9CEC" p-id="12933"></path><path d="M341.316 64.008h85.342v170.668h-85.342z" fill="#ED5564" p-id="12934"></path><path d="M85.32 298.676h85.344v170.654H85.32z" fill="#48CFAD" p-id="12935"></path><path d="M426.658 384.002h170.654v85.326h-170.654z" fill="#FFCE54" p-id="12936"></path><path d="M426.658 298.676h170.654v85.328h-170.654z" fill="#ED5564" p-id="12937"></path><path d="M85.32 533.328h85.344v170.668H85.32z" fill="#FFCE54" p-id="12938"></path><path d="M170.664 533.328h85.342v170.668H170.664z" fill="#AC92EB" p-id="12939"></path><path d="M256.006 618.688h170.652v85.308h-170.652z" fill="#A0D468" p-id="12940"></path><path d="M512 767.996h85.312v170.684H512z" fill="#FFCE54" p-id="12941"></path><path d="M256.006 767.996h85.31v170.684h-85.31z" fill="#5D9CEC" p-id="12942"></path><path d="M341.316 767.996h85.342v170.684h-85.342z" fill="#AC92EB" p-id="12943"></path><path d="M426.658 767.996H512v170.684h-85.342z" fill="#48CFAD" p-id="12944"></path><path d="M85.32 767.996h170.686v85.312H85.32z" fill="#A0D468" p-id="12945"></path><path d="M746.652 1023.992c-11.782 0-21.344-9.562-21.344-21.312V21.336c0-11.782 9.562-21.328 21.344-21.328 11.78 0 21.342 9.546 21.342 21.328V1002.68c0 11.75-9.562 21.312-21.342 21.312zM981.304 1023.992c-11.782 0-21.312-9.562-21.312-21.312V21.336c0-11.782 9.532-21.328 21.312-21.328s21.344 9.546 21.344 21.328V1002.68c0 11.75-9.562 21.312-21.344 21.312z" fill="#965353" p-id="12946"></path><path d="M426.658 317.332h170.654v48h-170.654zM256.006 637.312h170.652v47.996h-170.652zM104.008 533.328h48v170.668h-48zM360.004 767.996h47.998v170.684h-47.998zM445.314 767.996h47.998v170.684h-47.998zM530.656 767.996h48v170.684h-48z" fill="#E6E9ED" p-id="12947"></path></svg>