<?xml version="1.0" standalone="no"?><!DOCTYPE svg PUBLIC "-//W3C//DTD SVG 1.1//EN" "http://www.w3.org/Graphics/SVG/1.1/DTD/svg11.dtd"><svg t="1598596657400" class="icon" viewBox="0 0 1024 1024" version="1.1" xmlns="http://www.w3.org/2000/svg" p-id="5215" xmlns:xlink="http://www.w3.org/1999/xlink" width="200" height="200"><defs><style type="text/css"></style></defs><path d="M563.2 307.2h359.3728a17.066667 17.066667 0 0 0 13.892267-26.9824L805.4784 96.853333A68.2496 68.2496 0 0 0 749.943467 68.266667H563.2a17.066667 17.066667 0 0 0-17.066667 17.066666v204.8a17.066667 17.066667 0 0 0 17.066667 17.066667zM101.4272 307.2H460.8a17.066667 17.066667 0 0 0 17.066667-17.066667V85.333333a17.066667 17.066667 0 0 0-17.066667-17.066666H274.056533a68.266667 68.266667 0 0 0-55.552 28.586666L87.534933 280.2176A17.066667 17.066667 0 0 0 101.4272 307.2zM938.666667 375.466667H85.333333a17.066667 17.066667 0 0 0-17.066666 17.066666v494.933334a68.266667 68.266667 0 0 0 68.266666 68.266666h750.933334a68.266667 68.266667 0 0 0 68.266666-68.266666V392.533333a17.066667 17.066667 0 0 0-17.066666-17.066666zM204.8 648.533333h102.4a34.133333 34.133333 0 1 1 0 68.266667h-102.4a34.133333 34.133333 0 1 1 0-68.266667z m204.8 204.8H204.8a34.133333 34.133333 0 1 1 0-68.266666h204.8a34.133333 34.133333 0 1 1 0 68.266666z" fill="#040000" p-id="5216"></path></svg>