<?xml version="1.0" standalone="no"?><!DOCTYPE svg PUBLIC "-//W3C//DTD SVG 1.1//EN" "http://www.w3.org/Graphics/SVG/1.1/DTD/svg11.dtd"><svg t="1597932159639" class="icon" viewBox="0 0 1024 1024" version="1.1" xmlns="http://www.w3.org/2000/svg" p-id="13090" xmlns:xlink="http://www.w3.org/1999/xlink" width="128" height="128"><defs><style type="text/css"></style></defs><path d="M1023.2 512c0 282.53-229.07 511.6-511.6 511.6C229.04 1023.6 0 794.53 0 512 0 229.44 229.04 0.4 511.6 0.4 794.128 0.4 1023.2 229.44 1023.2 512z" fill="#5D9CEC" p-id="13091"></path><path d="M928.992 471.406c-104.23 7.932-137.612-53.114-123.902-71.756 23.73-32.35 136.768 46.184 144.262-12.022 1.25-9.742 24.762-34.598 46.496-41.062-48.308-141.42-156.816-254.958-294.958-310.008-4.748 16.144-8.994 29.57-11.304 30.726-79.438 38.626-173.302 56.548-229.666 130.804-7.9 10.428-18.33 30.102-7.026 42.56 13.958 15.392 51.334-0.438 69.726 0.874 51.024 3.686 194.942 37.19 199.626 60.516 4.652 23.294-54.646 67.384-112.568 35.41-17.05-9.398-85.214-21.11-108.384-25.262-16.144-2.936-155.878 14.614-149.632 180.672 2.53 67.354 44.622 110.694 112.6 111.474 56.332 0.656 113.348-5.934 131.804 60.734 15.642 56.548 9.68 115.066 23.606 171.302 5.622 22.638 17.548 54.426 46.246 56.892 43.464 3.748 72.692-25.478 98.796-55.83 20.86-24.202 47.182-45.246 62.668-73.538 24.608-44.996 17.864-98.516 43.874-143.574 21.016-36.344 90.648-151.41 57.736-148.912zM164.168 611.64c-16.018-23.264-34.364-45.806-50.834-68.758-15.348-21.39-75.254-118.658-103.03-133.616C3.542 442.46 0 476.808 0 512c0 124.496 44.482 238.626 118.424 327.338 1.904 2.28 46.354-30.726 50.272-34.066 16.394-13.928 30.148-30.946 36.3-51.898 14.332-48.774-13.866-102.512-40.828-141.734z" fill="#A0D468" p-id="13092"></path><path d="M1002.714 677.122c-0.624 0-1.248 0-1.872-0.062-86.214-7.494-187.636-36.814-301.454-87.15-90.242-39.906-188.666-93.116-292.49-158.126-176.392-110.48-309.506-218.58-310.834-219.674-9.118-7.432-10.492-20.86-3.044-29.976 7.432-9.118 20.858-10.492 29.976-3.06 1.312 1.062 132.708 107.76 306.978 216.832 102.014 63.886 198.564 116.064 286.902 155.126 109.414 48.338 206.182 76.472 287.65 83.56 11.74 1 20.422 11.336 19.39 23.076-0.966 11.084-10.272 19.454-21.202 19.454z" fill="#434A54" p-id="13093"></path><path d="M333.958 320.15c0 31.38-25.448 56.83-56.862 56.83-31.382 0-56.832-25.45-56.832-56.83 0-31.414 25.45-56.862 56.832-56.862 31.412 0.002 56.862 25.448 56.862 56.862z" fill="#ED5564" p-id="13094"></path><path d="M215.144 950.314c-6.058 0-12.052-2.56-16.268-7.526-7.62-8.962-6.526-22.42 2.436-30.04 105.23-89.432 203.124-187.228 290.93-290.71 70.256-82.81 134.3-169.398 190.288-257.424 95.426-149.914 134.926-253.272 135.3-254.3 4.154-10.992 16.458-16.55 27.48-12.396 10.99 4.152 16.548 16.424 12.394 27.448-1.622 4.308-40.966 107.542-138.39 260.888-57.08 89.804-122.31 178.142-193.91 262.608-89.494 105.512-189.228 205.246-296.488 296.364-4 3.4-8.902 5.088-13.772 5.088z" fill="#434A54" p-id="13095"></path><path d="M660.796 512c0 35.316-28.604 63.952-63.952 63.952-35.316 0-63.952-28.634-63.952-63.952s28.634-63.95 63.952-63.95c35.35 0 63.952 28.634 63.952 63.95z" fill="#ED5564" p-id="13096"></path><path d="M383.7 767.8m-63.95 0a63.95 63.95 0 1 0 127.9 0 63.95 63.95 0 1 0-127.9 0Z" fill="#ED5564" p-id="13097"></path></svg>