<?xml version="1.0" standalone="no"?><!DOCTYPE svg PUBLIC "-//W3C//DTD SVG 1.1//EN" "http://www.w3.org/Graphics/SVG/1.1/DTD/svg11.dtd"><svg t="1597932172184" class="icon" viewBox="0 0 1024 1024" version="1.1" xmlns="http://www.w3.org/2000/svg" p-id="13240" xmlns:xlink="http://www.w3.org/1999/xlink" width="128" height="128"><defs><style type="text/css"></style></defs><path d="M761.9 959.9H267.7c-50.8 0-92.2-52-92.2-116V382.4c0-17.8 5.4-34.8 15.1-47.8L374 88.5c11-14.8 26.9-23.3 43.6-23.3h344.2c50.8 0 92.2 52 92.2 116v662.7c0.1 64-41.3 116-92.1 116zM417.6 110.2c-2.3 0-5.2 1.9-7.6 5.2l-183.3 246c-3.9 5.2-6.1 12.9-6.1 20.9v461.6c0 38.5 21.6 71 47.2 71h494.1c25.6 0 47.2-32.5 47.2-71V181.2c0-38.5-21.6-71-47.2-71H417.6z" fill="#526351" p-id="13241"></path><path d="M675.4 829.7H354.2c-6.6 0-12-5.4-12-12V421c0-6.6 5.4-12 12-12h321.2c6.6 0 12 5.4 12 12v396.7c0 6.6-5.4 12-12 12z" fill="#FEF582" p-id="13242"></path><path d="M632.9 855H396.7c-45.1 0-81.8-34-81.8-75.7V459.5c0-41.8 36.7-75.7 81.8-75.7h236.2c45.1 0 81.8 34 81.8 75.7v319.7C714.6 821 678 855 632.9 855zM396.7 434.3c-15 0-27.3 11.3-27.3 25.2v319.7c0 13.9 12.2 25.2 27.3 25.2h236.2c15 0 27.3-11.3 27.3-25.2V459.5c0-13.9-12.2-25.2-27.3-25.2H396.7z" fill="#526351" p-id="13243"></path><path d="M348.2 570h333.3v12H348.2zM348.2 697.9h333.3v12H348.2z" fill="#526351" p-id="13244"></path><path d="M442.3 423h12v152h-12zM442.3 699.3h12v152h-12zM570.1 699.3h12v152h-12z" fill="#526351" p-id="13245"></path><path d="M571 419h12v156h-12z" fill="#526351" p-id="13246"></path></svg>