<?xml version="1.0" standalone="no"?><!DOCTYPE svg PUBLIC "-//W3C//DTD SVG 1.1//EN" "http://www.w3.org/Graphics/SVG/1.1/DTD/svg11.dtd"><svg t="1597932151015" class="icon" viewBox="0 0 1024 1024" version="1.1" xmlns="http://www.w3.org/2000/svg" p-id="12764" xmlns:xlink="http://www.w3.org/1999/xlink" width="128" height="128"><defs><style type="text/css"></style></defs><path d="M512 332h411.014l79.922-60C969.094 201.31 897.452 152 814 152H0v120l70.986 60z" fill="#FF641A" p-id="12765"></path><path d="M1002.936 272C969.094 201.31 897.452 152 814 152H512v180h411.014z" fill="#F03800" p-id="12766"></path><path d="M988.946 573.018L746.91 452H69.086L0 512v240h1024v-101.456z" fill="#FF641A" p-id="12767"></path><path d="M1024 650.544l-35.054-77.526L746.91 452H512v300h512z" fill="#F03800" p-id="12768"></path><path d="M964 463.456L1020.968 332c-3.076-21.218-9.09-41.316-18.032-60H0v240h746.91L1024 650.544v-67.09z" fill="#F03800" p-id="12769"></path><path d="M1024 650.544v-67.09l-60-120L1020.968 332c-3.076-21.218-9.09-41.316-18.032-60H512v240h234.91z" fill="#CD0000" p-id="12770"></path><path d="M784 463.456l240 120V362c0-10.272-1.6-20.116-3.032-30H784z" fill="#E7E7F2" p-id="12771"></path><path d="M242 872c-66.182 0-120-53.818-120-120s53.818-120 120-120 120 53.818 120 120-53.818 120-120 120z" fill="#596C76" p-id="12772"></path><path d="M242 692c-33.076 0-60 26.924-60 60s26.924 60 60 60 60-26.924 60-60-26.924-60-60-60z" fill="#F2F2F2" p-id="12773"></path><path d="M784 872c-66.182 0-120-53.818-120-120s53.818-120 120-120 120 53.818 120 120-53.818 120-120 120z" fill="#465A61" p-id="12774"></path><path d="M784 692c-33.076 0-60 26.924-60 60s26.924 60 60 60 60-26.924 60-60-26.924-60-60-60z" fill="#E7E7F2" p-id="12775"></path><path d="M60 332h182v120H60zM302 332h180v120h-180z" fill="#F2F2F2" p-id="12776"></path><path d="M542 332h182v120h-182z" fill="#E7E7F2" p-id="12777"></path></svg>